<svg width="36" height="36" viewBox="0 0 36 36" fill="none" xmlns="http://www.w3.org/2000/svg">
<circle cx="18" cy="18" r="18" fill="#0058AB"/>
<path d="M19 27H16.9325C14.1816 27 12.8062 27 11.8516 26.2402C10.5505 25.1942 10.4614 23.0725 10.2007 21.5878L9.60807 18.2134C9.50177 17.6081 9.09673 17.0876 8.51841 16.8132C8.37896 16.747 8.27952 16.6235 8.24894 16.4784C8.07874 15.6707 7.6264 14.5469 8.63812 14.1008C8.86684 14 9.17922 14 9.80397 14H13.5M17.5 14H26.196C26.8208 14 27.1332 14 27.3619 14.1008C28.3736 14.5469 27.9213 15.6707 27.7511 16.4784C27.7205 16.6235 27.621 16.747 27.4816 16.8132C27.1491 16.971 26.8738 17.2102 26.6797 17.5" stroke="#FCF9F9" stroke-width="1.5" stroke-linecap="round"/>
<path d="M21 23.5H28M24.5 27L24.5 20" stroke="#FCF9F9" stroke-width="1.5" stroke-linecap="round"/>
<path d="M12.5 17L16 9M21 9L23.5 14" stroke="#FCF9F9" stroke-width="1.5" stroke-linecap="round"/>
</svg>
